<svg width="42" height="42" viewBox="0 0 42 42" fill="none" xmlns="http://www.w3.org/2000/svg">
<circle cx="21" cy="21" r="21" fill="white"/>
<path d="M31.5 21.9217C31.3165 23.9076 30.5712 25.8001 29.3513 27.3779C28.1314 28.9557 26.4874 30.1534 24.6117 30.831C22.7359 31.5085 20.706 31.6378 18.7594 31.2038C16.8129 30.7697 15.0302 29.7903 13.6199 28.3801C12.2097 26.9698 11.2303 25.1871 10.7962 23.2406C10.3622 21.294 10.4915 19.2641 11.169 17.3883C11.8466 15.5126 13.0443 13.8686 14.6221 12.6487C16.1999 11.4288 18.0924 10.6835 20.0783 10.5C18.9157 12.073 18.3562 14.011 18.5016 15.9617C18.6471 17.9123 19.4878 19.7459 20.871 21.129C22.2541 22.5122 24.0877 23.3529 26.0384 23.4984C27.989 23.6438 29.927 23.0844 31.5 21.9217Z" stroke="black" stroke-width="2" stroke-linecap="round" stroke-linejoin="round"/>
</svg>
