<svg width="21" height="21" viewBox="0 0 21 21" fill="none" xmlns="http://www.w3.org/2000/svg">
<path d="M5.72176 11.5089L13.5971 18.0717C13.8648 18.2932 14.2094 18.3995 14.5553 18.3674C14.9013 18.3354 15.2204 18.1675 15.4429 17.9006C15.6654 17.6338 15.773 17.2896 15.7422 16.9435C15.7115 16.5974 15.5448 16.2776 15.2788 16.0542L8.61348 10.5001L15.2788 4.94606C15.5459 4.72291 15.7134 4.40287 15.7447 4.05625C15.7759 3.70963 15.6683 3.36477 15.4455 3.09744C15.2227 2.8301 14.9028 2.66215 14.5563 2.63047C14.2097 2.5988 13.8647 2.70599 13.5971 2.92851L5.72176 9.4914C5.57409 9.61477 5.45531 9.76905 5.3738 9.94336C5.29229 10.1177 5.25005 10.3077 5.25005 10.5002C5.25005 10.6926 5.29229 10.8827 5.3738 11.057C5.45531 11.2313 5.57409 11.3856 5.72176 11.5089Z" fill="black"/>
</svg>
