<svg width="22" height="22" viewBox="0 0 22 22" fill="none" xmlns="http://www.w3.org/2000/svg">
<path fill-rule="evenodd" clip-rule="evenodd" d="M0.199951 8.74995C0.199951 4.03552 4.03552 0.199951 8.74995 0.199951C13.4644 0.199951 17.2999 4.03552 17.2999 8.74995C17.2999 13.4644 13.4644 17.2999 8.74995 17.2999C4.03552 17.2999 0.199951 13.4644 0.199951 8.74995ZM8.74995 15.2C5.19412 15.2 2.29995 12.3065 2.29995 8.74995C2.29995 5.19414 5.19414 2.29995 8.74995 2.29995C12.3065 2.29995 15.2 5.19412 15.2 8.74995C15.2 12.3065 12.3065 15.2 8.74995 15.2ZM21.4923 21.4923C21.9027 21.0819 21.9027 20.4179 21.4923 20.0075L16.9915 15.5075C16.5811 15.0971 15.9172 15.0971 15.5068 15.5075C15.0964 15.9179 15.0964 16.5819 15.5068 16.9923L20.0075 21.4923C20.2122 21.6969 20.4814 21.7999 20.7499 21.7999C21.0184 21.7999 21.2876 21.6969 21.4923 21.4923Z" fill="black"/>
</svg>
