<svg width="21" height="21" viewBox="0 0 21 21" fill="none" xmlns="http://www.w3.org/2000/svg">
<path d="M15.2782 9.49107L7.40291 2.92829C7.13519 2.70683 6.79063 2.6005 6.44467 2.63256C6.09871 2.66463 5.77955 2.83248 5.55709 3.09936C5.33463 3.36625 5.227 3.71041 5.25776 4.05649C5.28852 4.40257 5.45517 4.72235 5.72121 4.94582L12.3865 10.4999L5.72121 16.0539C5.45414 16.2771 5.28657 16.5971 5.25531 16.9438C5.22405 17.2904 5.33166 17.6352 5.55449 17.9026C5.77733 18.1699 6.09716 18.3379 6.44375 18.3695C6.79033 18.4012 7.13531 18.294 7.40291 18.0715L15.2782 11.5086C15.4259 11.3852 15.5447 11.2309 15.6262 11.0566C15.7077 10.8823 15.75 10.6923 15.75 10.4998C15.75 10.3074 15.7077 10.1173 15.6262 9.94303C15.5447 9.76873 15.4259 9.61444 15.2782 9.49107Z" fill="current"/>
</svg>
