<svg viewBox="0 0 490 171" fill="none" xmlns="http://www.w3.org/2000/svg">
<path d="M157.76 132.445H153.367L150.93 128.374C147.515 132.321 143.245 133.928 135.689 133.928C124.711 133.928 117.637 127.632 117.637 114.93V57.2341C117.637 43.1727 125.444 36.142 137.515 36.142C148.615 36.142 155.567 40.5842 155.567 57.3577C155.575 61.4037 155.289 65.4448 154.712 69.4484L142.396 68.4598C142.88 65.3598 143.123 62.2262 143.123 59.0877C143.123 50.0799 141.193 48.727 138.492 48.727C134.833 48.727 133.856 50.6782 133.856 55.0163V116.192C133.856 119.769 135.2 121.616 138.357 121.616C140.93 121.616 142.261 119.769 142.261 116.192V87.0544H157.747L157.76 132.445Z" fill="#4030FA"/>
<path d="M210.019 132.445H193.678L192.456 119.249H182.809L181.587 132.445H168.063L180.14 37.7225H197.575L210.019 132.445ZM190.867 106.052L187.941 68.3298L184.16 106.052H190.867Z" fill="#4030FA"/>
<path d="M274.052 132.679H258.444V88.2902L251.492 132.679H241.492L234.174 88.2772V132.679H220.758V37.7225H239.537L246.952 93.5909L255.763 37.7225H274.052V132.679Z" fill="#4030FA"/>
<path d="M319.114 132.445H286.181V37.7225H318.979V50.7953H302.407V77.0645H316.188V90.404H302.407V119.392H319.127L319.114 132.445Z" fill="#4030FA"/>
<path d="M362.994 50.7953H346.402V79.1653H360.184V92.1145H346.402V132.679H330.183V37.7225H362.981L362.994 50.7953Z" fill="#4030FA"/>
<path d="M406.943 132.679H374.01V37.7225H390.235V119.249H406.956L406.943 132.679Z" fill="#4030FA"/>
<path d="M434.339 132.679H418.12V37.7225H434.339V132.679Z" fill="#4030FA"/>
<path d="M490 132.679H471.948L466.462 101.597L460.244 132.556H445.124L458.662 84.7001L445.124 37.7225H462.07L467.215 63.621L473.17 37.7225H488.296L475.254 84.2188L490 132.679Z" fill="#4030FA"/>
<path d="M27.094 35.3357V100.999L0 80.4466V55.8945L27.094 35.3357Z" fill="url(#paint0_linear)"/>
<path d="M96.1183 99.4833V154.018L95.6809 153.693L69.0243 133.46V78.9245L96.1183 99.4833Z" fill="url(#paint1_linear)"/>
<path d="M96.5109 17.3198L69.4555 37.8461L27.0942 69.9688V35.3356L69.4555 3.20641L73.6807 0L96.5109 17.3198Z" fill="url(#paint2_linear)"/>
<path d="M96.1183 154.018L73.7254 171L57.397 158.61L23.8334 133.16L0 115.08V80.4464L27.094 100.999L57.397 123.977L69.4552 133.128V133.778L96.1183 154.018Z" fill="url(#paint3_linear)"/>
<defs>
<linearGradient id="paint0_linear" x1="13.5502" y1="36.5844" x2="13.5502" y2="101.662" gradientUnits="userSpaceOnUse">
<stop stop-color="#4690FF"/>
<stop offset="1" stop-color="#102F9E"/>
</linearGradient>
<linearGradient id="paint1_linear" x1="82.5745" y1="80.3526" x2="82.5745" y2="154.777" gradientUnits="userSpaceOnUse">
<stop stop-color="#2253FF"/>
<stop offset="1" stop-color="#5D00D3"/>
</linearGradient>
<linearGradient id="paint2_linear" x1="89.925" y1="-2.93282e-06" x2="27.418" y2="57.8005" gradientUnits="userSpaceOnUse">
<stop stop-color="#349CFD"/>
<stop offset="1" stop-color="#4417F9"/>
</linearGradient>
<linearGradient id="paint3_linear" x1="-3.16041e-07" y1="119.516" x2="81.7662" y2="175.451" gradientUnits="userSpaceOnUse">
<stop stop-color="#009ADC"/>
<stop offset="1" stop-color="#1E00D8"/>
</linearGradient>
</defs>
</svg>
